<svg id="Layer_1" data-name="Layer 1" xmlns="http://www.w3.org/2000/svg" viewBox="0 0 943.56 249.73"><defs><style>.cls-1{fill:#c4400c;}</style></defs><title>Shed_logo</title><path class="cls-1" d="M295.31,455.35l-43.52-43.52V368.66l43.52-43.53H397.7l43.53,43.53v32.46H398.42V363H294.6v52.8l104.89,23.19L443,482.47v48.87l-43.52,43.53H291.74l-43.52-43.53v-36H291v41.74H400.2V478.54Z" transform="translate(-248.22 -325.13)"/><path class="cls-1" d="M470.1,574.87V325.13h42.81V429.31h200.5V325.13h42.82V574.87H713.41v-107H512.91v107Z" transform="translate(-248.22 -325.13)"/><path class="cls-1" d="M952.41,363H831.83v62.43H938.14v37.11H831.83v74.56H956v37.82H789V325.13H952.41Z" transform="translate(-248.22 -325.13)"/><path class="cls-1" d="M1191.78,531.34l-43.52,43.53H982.36V325.13h165.9l43.52,43.53ZM1149,363h-123.8v174.1H1149Z" transform="translate(-248.22 -325.13)"/></svg>